<?xml version="1.0" standalone="no"?>
<!DOCTYPE svg PUBLIC "-//W3C//DTD SVG 1.1//EN" "http://www.w3.org/Graphics/SVG/1.1/DTD/svg11.dtd" >
<svg>
<metadata>
Created by FontForge 20090622 at Wed Sep 16 12:26:31 2015
 By deploy user
[c] Copyright 1994-2004, The Font Bureau, Inc. Designed by David Berlow. Truth is a Trademark of The Font Bureau, Inc. All rights reserved.
</metadata>
<defs>
<font id="TruthCYR-Ultra" horiz-adv-x="500" >
  <font-face 
    font-family="TruthCYR Ultra"
    font-weight="900"
    font-stretch="normal"
    units-per-em="1000"
    panose-1="2 0 5 5 6 0 0 2 0 4"
    ascent="800"
    descent="-200"
    x-height="562"
    cap-height="737"
    bbox="-106 -240 1625 992"
    underline-thickness="20"
    underline-position="-113"
    unicode-range="U+0020-U+FB02"
  />
<missing-glyph 
 />
    <glyph glyph-name="fi" unicode="fi" horiz-adv-x="776" 
d="M766 0h-300v417h-96v-417h-300v418h-68v133h71v39q0 78 60 117.5t163 39.5q112 0 201 -39l-56 -119q-21 15 -39 15q-20 0 -29 -7.5t-9 -27.5v-18h402v-551z" />
    <glyph glyph-name="fl" unicode="fl" horiz-adv-x="796" 
d="M766 0h-300v588q-26 22 -52 22q-50 0 -50 -35v-38h84l-1 -120h-77v-417h-300v418h-68v133h71v39q0 79 61 124t162 45q99 0 170 -22h300v-737z" />
    <glyph glyph-name=".notdef" 
 />
    <glyph glyph-name=".null" horiz-adv-x="0" 
 />
    <glyph glyph-name="nonmarkingreturn" horiz-adv-x="333" 
 />
    <glyph glyph-name="space" unicode=" " horiz-adv-x="239" 
 />
    <glyph glyph-name="space" unicode="&#xa0;" horiz-adv-x="239" 
 />
    <glyph glyph-name="exclam" unicode="!" horiz-adv-x="372" 
d="M358 737l-48 -407h-249l-44 407h341zM318 0h-265v235h265v-235z" />
    <glyph glyph-name="quotedbl" unicode="&#x22;" horiz-adv-x="604" 
d="M592 737l-57 -277h-164l-54 277h275zM288 737l-58 -277h-163l-52 277h273z" />
    <glyph glyph-name="numbersign" unicode="#" horiz-adv-x="880" 
d="M873 597l-52 -184h-222l-20 -81h241l-57 -192h-224l-33 -140h-84l32 140h-114l-32 -140h-84l34 140h-248l49 192h243l18 81h-250l46 184h254l28 140h87l-29 -140h107l33 140h86l-34 -140h225zM514 413h-108l-19 -81h104z" />
    <glyph glyph-name="dollar" unicode="$" horiz-adv-x="603" 
d="M602 227q0 -113 -83.5 -174.5t-219.5 -62.5l-10 -73h-100l11 76q-141 13 -199 39l51 158q70 -37 173 -45l18 151q-9 4 -36.5 18l-36 18.5l-31.5 17t-31.5 19l-26 19.5t-24 22.5t-18 24.5t-15.5 29t-7.5 32.5t-3.5 38.5q0 215 296 218l11 77h99l-11 -81q71 -6 125 -15
v-149q-25 11 -147 28l-16 -131q123 -55 177.5 -109.5t54.5 -145.5zM297 614q-44 -8 -44 -38q0 -12 1 -18.5t8.5 -17t23.5 -20.5zM360 195q0 36 -35 58l-12 -104q47 9 47 46z" />
    <glyph glyph-name="percent" unicode="%" horiz-adv-x="1068" 
d="M545 527q0 -73 -74.5 -120.5t-191.5 -47.5q-115 0 -193.5 49.5t-78.5 118.5v52q0 66 75.5 117.5t196.5 51.5t193.5 -49.5t72.5 -119.5v-52zM893 737l-573 -737h-141l576 737h138zM1060 157q0 -72 -74.5 -120t-192.5 -48q-112 0 -191.5 50t-79.5 118v52q0 66 75.5 117.5
t195.5 51.5q123 0 195 -49.5t72 -119.5v-52zM307 541v33q0 52 -7.5 66t-26.5 14q-18 0 -22.5 -13t-4.5 -65v-35q0 -63 6 -79t28 -16q17 0 22 17.5t5 77.5zM821 170v34q0 50 -7.5 65t-24.5 15q-18 0 -23 -13.5t-5 -64.5v-36q0 -60 6.5 -77t26.5 -17t23.5 14.5t3.5 79.5z" />
    <glyph glyph-name="ampersand" unicode="&#x26;" horiz-adv-x="810" 
d="M476 386l48 -58q34 53 56 104l204 -83q-36 -87 -108 -173l151 -176h-361q-16 17 -22 25q-50 -37 -162 -37q-123 0 -195.5 50t-72.5 152q0 35 12.5 63t43.5 54t54.5 40.5t74.5 43.5q-85 77 -85 172q0 80 72 132t203 52q114 0 179 -49.5t65 -119.5q0 -139 -157 -192z
M403 504q22 29 22 62q0 34 -23 34q-26 0 -26 -36q0 -31 27 -60zM362 186l-53 75q-34 -21 -34 -47q0 -39 56 -39q18 0 31 11z" />
    <glyph glyph-name="quotesingle" unicode="'" horiz-adv-x="250" 
d="M239 737l-8 -283h-212l-17 283h237z" />
    <glyph glyph-name="parenleft" unicode="(" horiz-adv-x="469" 
d="M460 -87q-219 1 -329 112.5t-110 310.5q0 74 25 145.5t75 134.5t138 103t201 41v-73q-77 -42 -113 -144.5t-36 -206.5q0 -55 4.5 -98t18 -96.5t45.5 -93.5t81 -62v-73z" />
    <glyph glyph-name="parenright" unicode=")" horiz-adv-x="469" 
d="M448 336q0 -88 -24 -161.5t-74 -133.5t-137 -94t-204 -34v73q95 54 122 127t27 223q0 157 -31.5 238t-117.5 113v73q90 0 166 -29t125 -74t83.5 -102.5t49.5 -112.5t15 -106z" />
    <glyph glyph-name="asterisk" unicode="*" horiz-adv-x="778" 
d="M770 328h-116l90 -90l-155 -154l-194 194l-194 -194l-154 154l90 90h-130v182h117l-90 90l155 154l194 -194l194 194l154 -154l-90 -90h129v-182z" />
    <glyph glyph-name="plus" unicode="+" horiz-adv-x="689" 
d="M640 252h-180v-182h-203v182h-176v162h176v184h203v-184h180v-162z" />
    <glyph glyph-name="comma" unicode="," horiz-adv-x="318" 
d="M302 0q0 -100 -72 -142t-211 -42v122q54 0 69 16t15 46h-84v234h283v-234z" />
    <glyph glyph-name="hyphen" unicode="-" horiz-adv-x="578" 
d="M529 247h-479v202h479v-202z" />
    <glyph glyph-name="hyphen" unicode="&#xad;" horiz-adv-x="578" 
d="M529 247h-479v202h479v-202z" />
    <glyph glyph-name="period" unicode="." horiz-adv-x="318" 
d="M304 0h-287v234h287v-234z" />
    <glyph glyph-name="slash" unicode="/" horiz-adv-x="580" 
d="M601 737l-459 -820h-164l458 820h165z" />
    <glyph glyph-name="zero" unicode="0" horiz-adv-x="772" 
d="M752 350q0 -183 -95 -272.5t-271 -89.5q-174 0 -270 92.5t-96 268.5v24q0 178 94.5 276.5t271.5 98.5q181 0 273.5 -100t92.5 -274v-24zM440 346v30q0 106 -6.5 157t-16.5 62t-31 11q-22 0 -31 -12.5t-14 -61t-5 -156.5v-28q0 -99 5 -145.5t14.5 -61t30.5 -14.5
q20 0 30.5 12.5t17 61t6.5 145.5z" />
    <glyph glyph-name="one" unicode="1" horiz-adv-x="554" 
d="M468 0h-298v527h-135v145q46 2 79.5 10.5t53 22t27.5 22t17 22.5h256v-749z" />
    <glyph glyph-name="two" unicode="2" horiz-adv-x="762" 
d="M433 186h285v-186h-661v167q51 52 147 132t139.5 130t43.5 97q0 31 -6.5 41t-20.5 10q-17 0 -25.5 -18.5t-8.5 -66.5h-284q-7 255 328 255q159 0 239.5 -57t80.5 -156q0 -94 -54 -167.5t-203 -180.5z" />
    <glyph glyph-name="three" unicode="3" horiz-adv-x="772" 
d="M757 210q0 -102 -94 -162t-275 -60q-145 0 -233 34.5t-137 104.5l186 119q62 -83 166 -83q95 0 95 71q0 77 -120 77h-111v143h141q41 0 63.5 20t22.5 54q0 40 -21.5 57t-66.5 17q-41 0 -67 -16t-28 -48h-224q18 210 365 210q140 0 230.5 -48t90.5 -145q0 -146 -153 -159
q81 -7 125.5 -56.5t44.5 -129.5z" />
    <glyph glyph-name="four" unicode="4" horiz-adv-x="772" 
d="M766 160h-120v-160h-317v160h-319l-8 208l379 379h265v-407h120v-180zM331 340v133l-132 -133h132z" />
    <glyph glyph-name="five" unicode="5" horiz-adv-x="772" 
d="M757 263q0 -130 -91 -202.5t-259 -72.5q-116 0 -200 22t-124.5 50.5t-71.5 69.5l178 107q42 -90 145 -90q44 0 71.5 28.5t27.5 78.5q0 51 -30.5 77.5t-79.5 26.5q-44 0 -75 -22.5t-46 -53.5l-147 74l28 381h585v-169h-384l-8 -109q19 23 73 41.5t120 18.5
q137 0 212.5 -68t75.5 -188z" />
    <glyph glyph-name="six" unicode="6" horiz-adv-x="772" 
d="M759 252q0 -120 -88.5 -192.5t-264.5 -72.5q-199 0 -290.5 97t-91.5 265q0 208 101.5 301.5t305.5 93.5q43 0 110.5 -10t107.5 -25v-148q-71 30 -178 30q-66 0 -98.5 -26t-41.5 -100q49 41 152 41q130 0 203 -64.5t73 -189.5zM468 250q0 67 -23 93.5t-53 26.5
q-66 0 -66 -120q0 -116 68 -116q74 0 74 116z" />
    <glyph glyph-name="seven" unicode="7" horiz-adv-x="712" 
d="M691 535q-75 -34 -129.5 -82.5t-89.5 -116t-38 -150.5t25 -186h-350q-3 92 14.5 172t46 137t72.5 108.5t84.5 84t91.5 65.5h-397v170h670v-202z" />
    <glyph glyph-name="eight" unicode="8" horiz-adv-x="772" 
d="M761 211q0 -223 -381 -223q-186 0 -280 57.5t-94 165.5q0 35 14.5 65t32 47.5t46.5 33t42 20.5t35 12v4q-22 4 -42.5 11.5t-48.5 24t-45 47.5t-17 72q0 96 87 148t264 52q186 0 281 -49t95 -136q0 -39 -14 -70.5t-34 -49t-44.5 -30t-42.5 -17t-32 -5.5v-3q18 -2 34.5 -5
t44.5 -15t48 -29.5t35.5 -51t15.5 -76.5zM430 532q0 85 -49 85q-52 0 -52 -85q0 -49 12 -71t40 -22t38.5 21t10.5 72zM447 219q0 54 -15.5 77t-47.5 23q-33 0 -49 -23t-16 -77q0 -53 14 -76.5t51 -23.5q39 0 51 22.5t12 77.5z" />
    <glyph glyph-name="nine" unicode="9" horiz-adv-x="772" 
d="M20 482q0 120 88 192.5t259 72.5q192 0 285.5 -97.5t93.5 -264.5q0 -208 -100 -301.5t-289 -93.5q-71 0 -159 8.5t-123 28.5v150q85 -39 239 -39q65 0 94.5 25.5t32.5 100.5q-23 -22 -66.5 -32t-82.5 -10q-127 0 -199.5 67t-72.5 193zM316 478q0 -68 19.5 -96.5
t48.5 -28.5q62 0 62 125q0 64 -16 90t-46 26q-68 0 -68 -116z" />
    <glyph glyph-name="colon" unicode=":" horiz-adv-x="346" 
d="M304 340h-266v221h266v-221zM304 0h-266v221h266v-221z" />
    <glyph glyph-name="semicolon" unicode=";" horiz-adv-x="346" 
d="M303 340h-265v221h265v-221zM303 38q0 -128 -64.5 -175t-200.5 -47v117q27 0 42.5 3t22 13.5t7.5 19.5t1 31h-73v218h265v-180z" />
    <glyph glyph-name="less" unicode="&#x3c;" horiz-adv-x="487" 
d="M446 6l-415 196v139l415 196v-183l-178 -84l178 -81v-183z" />
    <glyph glyph-name="equal" unicode="=" horiz-adv-x="686" 
d="M629 327h-568v193h568v-193zM629 60h-568v193h568v-193z" />
    <glyph glyph-name="greater" unicode="&#x3e;" horiz-adv-x="487" 
d="M37 6v183l178 81l-178 84v183l415 -196v-139z" />
    <glyph glyph-name="question" unicode="?" horiz-adv-x="659" 
d="M639 587q0 -51 -18 -81.5t-59 -58.5q-69 -47 -86 -66q-29 -33 -29 -80v-28h-293v30q0 13 0.5 24t3.5 21.5t4 16.5t7 15t7 12t10 11.5l10.5 10t13 11.5t13.5 11l18 14t19 16t10.5 15t5.5 21q0 63 -119 63q-93 0 -135 -37v181q22 17 109.5 30.5t186.5 13.5q133 0 227 -44
t94 -122zM449 0h-289v225h289v-225z" />
    <glyph glyph-name="at" unicode="@" horiz-adv-x="1128" 
d="M1114 321q0 -69 -24.5 -119.5t-65.5 -78t-86.5 -40t-95.5 -12.5q-83 0 -147 24.5t-80 81.5q-9 -30 -33.5 -52t-52.5 -33t-50.5 -16t-35.5 -5q-116 0 -175.5 55.5t-59.5 159.5q0 102 53.5 158.5t154.5 56.5q69 0 113.5 -16t55.5 -40v53h261v-226q0 -45 11 -64.5t44 -19.5
q60 0 60 131q0 76 -15.5 129.5t-56.5 99t-120.5 68t-198.5 22.5q-197 0 -304 -90t-107 -262q0 -179 106 -262.5t294 -83.5q64 0 174.5 11.5t165.5 35.5v-103q-48 -24 -156 -37.5t-184 -13.5q-159 0 -281.5 53t-193.5 157.5t-71 246.5q0 89 35.5 170.5t102.5 147t174.5 104.5
t239.5 39q263 0 406 -115.5t143 -314.5zM575 270v26q0 41 -6 57t-31 16q-29 0 -38.5 -18.5t-9.5 -65.5t10.5 -67t41.5 -20q33 0 33 72z" />
    <glyph glyph-name="A" unicode="A" horiz-adv-x="749" 
d="M747 0h-341l-25 133h-118l-30 -133h-228l242 737h258zM357 279l-30 131l-32 -131h62z" />
    <glyph glyph-name="B" unicode="B" horiz-adv-x="714" 
d="M697 224q0 -115 -78.5 -169.5t-210.5 -54.5h-362v737h367q70 0 117.5 -11.5t71.5 -34t33.5 -49t9.5 -63.5q0 -70 -38.5 -109.5t-105.5 -47.5q33 -3 64.5 -13t62.5 -31.5t50 -61t19 -92.5zM377 504v37q0 29 -8 42t-17 13h-13v-144h11q27 0 27 52zM381 200v67q0 52 -25 52
h-17v-169h15q27 0 27 50z" />
    <glyph glyph-name="C" unicode="C" horiz-adv-x="606" 
d="M600 20q-15 -10 -78.5 -21t-91.5 -11q-204 0 -311 94.5t-107 251.5v57q0 151 108.5 253.5t281.5 102.5q50 0 110.5 -7.5t87.5 -17.5v-167q-7 2 -25.5 10.5t-41.5 13t-59 4.5q-23 0 -38 -4.5t-34 -21.5t-29 -59t-10 -108v-62q0 -35 3 -63.5t9.5 -48t12.5 -33.5t17.5 -22.5
t19 -13.5t22.5 -6.5t21.5 -2t22.5 -0.5q37 0 109 28v-146z" />
    <glyph glyph-name="D" unicode="D" horiz-adv-x="758" 
d="M741 326q0 -154 -71.5 -240t-205.5 -86h-418v737h390q67 0 120.5 -20t87.5 -52t56.5 -76t31.5 -89t9 -94v-80zM414 292v154q0 78 -4 106.5t-20 28.5h-27v-429h5q30 0 37 14q9 18 9 126z" />
    <glyph glyph-name="E" unicode="E" horiz-adv-x="602" 
d="M585 0h-539v737h519v-150h-205v-131h162v-165h-162v-137h225v-154z" />
    <glyph glyph-name="F" unicode="F" horiz-adv-x="600" 
d="M590 587h-218v-133h127v-163h-127v-291h-326v737h544v-150z" />
    <glyph glyph-name="G" unicode="G" horiz-adv-x="718" 
d="M698 77q-116 -89 -280 -89q-198 0 -302.5 99t-104.5 263v40q0 103 58.5 185.5t152.5 126t203 43.5q123 0 214 -34v-167q-78 35 -155 35q-53 0 -91.5 -32t-38.5 -91v-163q0 -70 6 -105t16 -44.5t30 -9.5q46 0 46 52v96h-58v153h304v-358z" />
    <glyph glyph-name="H" unicode="H" horiz-adv-x="820" 
d="M774 0h-325v287h-77v-287h-326v737h326v-277h77v277h325v-737z" />
    <glyph glyph-name="I" unicode="I" horiz-adv-x="420" 
d="M373 0h-326v737h326v-737z" />
    <glyph glyph-name="J" unicode="J" horiz-adv-x="528" 
d="M491 203q0 -210 -275 -210q-154 0 -210 26v153q26 -12 81 -12q27 0 50.5 16t23.5 58v503h330v-534z" />
    <glyph glyph-name="K" unicode="K" horiz-adv-x="878" 
d="M884 0h-380l-133 223l1 -8v-215h-326v737h326v-235l147 235h319l-238 -312z" />
    <glyph glyph-name="L" unicode="L" horiz-adv-x="656" 
d="M653 0h-607v737h326v-563h281v-174z" />
    <glyph glyph-name="M" unicode="M" horiz-adv-x="1032" 
d="M990 0h-282v326l-112 -326h-208l-121 326v-326h-221v737h290l182 -429l172 429h300v-737z" />
    <glyph glyph-name="N" unicode="N" horiz-adv-x="798" 
d="M755 0h-270l-173 272v-272h-266v737h240l204 -295v295h265v-737z" />
    <glyph glyph-name="O" unicode="O" horiz-adv-x="781" 
d="M764 337q0 -168 -102.5 -258.5t-271.5 -90.5q-177 0 -275 87.5t-98 259.5v61q0 154 96 252.5t277 98.5q180 0 277 -97.5t97 -253.5v-59zM424 315v103q0 149 -10 168q-5 11 -24 11q-21 0 -27 -17q-7 -22 -7 -162v-101v-151q3 -30 20 -34q6 -1 14 -1q26 0 30.5 17t3.5 102
v65z" />
    <glyph glyph-name="P" unicode="P" horiz-adv-x="744" 
d="M730 418q0 -85 -66 -125t-198 -40h-94v-253h-326v737h427q70 0 122.5 -16.5t80.5 -43.5t41 -55.5t13 -57.5v-146zM399 451v67q0 29 -8 42t-17 13h-17v-174h15q27 0 27 52z" />
    <glyph glyph-name="Q" unicode="Q" horiz-adv-x="798" 
d="M779 345q0 -75 -24 -135.5t-64.5 -98t-80 -59.5t-82.5 -34q0 -16 2.5 -23.5t16 -13.5t41.5 -6h79v-142h-214q-95 0 -151.5 49.5t-56.5 133.5q-41 10 -81 35t-74.5 65t-56 99.5t-21.5 129.5v53q0 154 102 251.5t284 97.5q176 0 278.5 -94.5t102.5 -254.5v-53zM442 344v50
q0 94 -5 137.5t-13 53.5t-27 10q-17 0 -25 -11t-13.5 -56t-5.5 -134v-50q0 -99 4.5 -143t13 -56t29.5 -12q17 0 24.5 9.5t12.5 55.5t5 146z" />
    <glyph glyph-name="R" unicode="R" horiz-adv-x="800" 
d="M765 0h-327q0 134 -4.5 200t-11.5 82.5t-22 16.5h-28v-299h-326v737h478q98 0 152 -46.5t54 -117.5v-53q0 -59 -20 -93t-71 -45q75 -16 100.5 -103t25.5 -279zM412 492v51q0 55 -18 55h-22v-159h22q18 0 18 53z" />
    <glyph glyph-name="S" unicode="S" horiz-adv-x="642" 
d="M628 209q0 -110 -72.5 -168t-237.5 -58q-92 0 -175.5 13.5t-122.5 30.5v165q34 -16 95.5 -29.5t108.5 -13.5q65 0 65 49q0 29 -20.5 45t-73.5 39q-9 4 -14 6q-76 33 -117.5 83t-41.5 143q0 97 83 161.5t232 64.5q135 0 238 -18v-167q-22 8 -74.5 16t-94.5 8
q-71 0 -71 -47q0 -30 24.5 -49.5t99.5 -47.5q169 -64 169 -226z" />
    <glyph glyph-name="T" unicode="T" horiz-adv-x="718" 
d="M709 585h-184v-585h-329v585h-191v152h704v-152z" />
    <glyph glyph-name="U" unicode="U" horiz-adv-x="778" 
d="M740 262q0 -42 -7 -76.5t-28 -72.5t-56.5 -64t-97.5 -43t-145 -17q-196 0 -282.5 72t-86.5 192v484h329v-484q0 -105 61 -105q32 0 41.5 24t9.5 84v481h262v-475z" />
    <glyph glyph-name="V" unicode="V" horiz-adv-x="815" 
d="M802 737l-239 -737h-303l-239 737h336l84 -413l102 413h259z" />
    <glyph glyph-name="W" unicode="W" horiz-adv-x="1172" 
d="M1154 737l-204 -737h-280l-82 315l-79 -315h-280l-204 737h323l56 -379l95 379h254l79 -377l76 377h246z" />
    <glyph glyph-name="X" unicode="X" horiz-adv-x="782" 
d="M773 0h-355l-68 160l-77 -160h-261l215 345l-229 392h354l53 -119l70 119h253l-198 -322z" />
    <glyph glyph-name="Y" unicode="Y" horiz-adv-x="856" 
d="M844 737l-255 -445v-292h-326v278l-258 459h360l117 -247l118 247h244z" />
    <glyph glyph-name="Z" unicode="Z" horiz-adv-x="731" 
d="M709 0h-677v122l297 465h-283v150h663v-120l-296 -465h296v-152z" />
    <glyph glyph-name="bracketleft" unicode="[" horiz-adv-x="504" 
d="M486 -109h-423v846h423v-143h-159v-561h159v-142z" />
    <glyph glyph-name="backslash" unicode="\" horiz-adv-x="553" 
d="M601 -83h-165l-458 820h164z" />
    <glyph glyph-name="bracketright" unicode="]" horiz-adv-x="504" 
d="M438 -109h-421v142h158v561h-158v143h421v-846z" />
    <glyph glyph-name="asciicircum" unicode="^" horiz-adv-x="668" 
d="M665 321h-288l-42 156l-47 -156h-288l216 416h225z" />
    <glyph glyph-name="underscore" unicode="_" horiz-adv-x="498" 
d="M498 -201h-498v190h498v-190z" />
    <glyph glyph-name="grave" unicode="`" horiz-adv-x="510" 
d="M409 596h-226l-160 173h264z" />
    <glyph glyph-name="a" unicode="a" horiz-adv-x="691" 
d="M670 0h-274l-9 81q-16 -36 -65.5 -62t-117.5 -26q-81 0 -137 42.5t-56 121.5v39q0 72 59 127.5t152 55.5q85 0 153 -22v25q0 28 -33 41t-75 13q-49 0 -121 -15t-92 -30v138q25 17 109 32.5t217 15.5q159 0 224.5 -62.5t65.5 -198.5v-316zM386 174v43q0 45 -26 45
q-27 0 -27 -46v-34q0 -46 28 -46q25 0 25 38z" />
    <glyph glyph-name="b" unicode="b" horiz-adv-x="722" 
d="M703 225q0 -107 -56.5 -170t-156.5 -63q-147 0 -182 36l-5 -28h-274v737h278v-260q17 36 62.5 66t120.5 30q94 0 153.5 -53t59.5 -150v-145zM400 226v103q0 44 -8.5 60.5t-33.5 16.5q-11 0 -23.5 -6t-16.5 -13v-248q14 -14 45 -14q37 0 37 101z" />
    <glyph glyph-name="c" unicode="c" horiz-adv-x="527" 
d="M518 25q-81 -37 -193 -37q-141 0 -227.5 70t-86.5 198v43q0 122 86 199.5t230 77.5q106 0 191 -35v-150q-50 36 -108 36q-43 0 -67 -32.5t-24 -95.5v-51q0 -62 32 -87.5t80 -25.5q37 0 87 26v-136z" />
    <glyph glyph-name="d" unicode="d" horiz-adv-x="708" 
d="M688 0h-259l-20 49q-35 -54 -152 -54q-103 0 -174.5 65t-71.5 181v59q0 112 71 190.5t186 78.5q85 0 139 -27v195h281v-737zM397 150v251q-12 14 -37 14q-44 0 -44 -72v-91q0 -77 9.5 -99.5t32.5 -22.5q7 0 12.5 1t8.5 1.5t6.5 3.5t4.5 4t3.5 5t3.5 5z" />
    <glyph glyph-name="e" unicode="e" horiz-adv-x="652" 
d="M641 240h-334q0 -51 26 -76t86 -25q102 0 195 59v-154q-87 -56 -263 -56q-168 0 -254 70t-86 204v40q0 111 88 193.5t232 82.5q149 0 229.5 -77.5t80.5 -195.5v-65zM384 337q0 62 -7.5 83t-31.5 21q-23 0 -30 -20t-7 -84h76z" />
    <glyph glyph-name="f" unicode="f" horiz-adv-x="478" 
d="M497 708l-56 -119q-21 15 -39 15q-20 0 -29 -7.5t-9 -27.5v-18h102v-134h-96v-417h-300v418h-68v133h71v39q0 78 60 117.5t163 39.5q112 0 201 -39z" />
    <glyph glyph-name="g" unicode="g" horiz-adv-x="719" 
d="M693 68q0 -120 -90 -188.5t-265 -68.5q-87 0 -171 11t-107 26v148q121 -42 247 -42q38 0 67 20.5t29 53.5v73q-10 -89 -162 -89q-41 0 -77.5 11t-73 37t-58 77.5t-21.5 124.5v44q0 117 65.5 188t165.5 71q108 0 157 -66v63h294v-494zM394 239v74q0 54 -8.5 79t-32.5 25
q-13 0 -20 -4.5t-10.5 -21t-4 -31.5t-0.5 -52v-7v-31q0 -59 3 -84t10 -33t24 -8q24 0 31.5 21.5t7.5 72.5z" />
    <glyph glyph-name="h" unicode="h" horiz-adv-x="739" 
d="M711 0h-297v357q0 50 -39 50q-21 0 -33 -12.5t-14 -30.5v-364h-298v737h279v-259q18 44 78 69.5t124 25.5q97 0 148.5 -36t51.5 -99v-438z" />
    <glyph glyph-name="i" unicode="i" horiz-adv-x="370" 
d="M336 602h-301v135h301v-135zM336 0h-301v562h301v-562z" />
    <glyph glyph-name="j" unicode="j" horiz-adv-x="396" 
d="M358 602h-302v135h302v-135zM358 95q0 -136 -77 -205t-217 -69q-54 0 -107.5 6t-62.5 13v144q29 -12 76 -12q39 0 62.5 27t23.5 79v484h302v-467z" />
    <glyph glyph-name="k" unicode="k" horiz-adv-x="736" 
d="M750 0h-335l-90 154l-2 -3v-151h-294v737h278v-385l138 210h259l-176 -250z" />
    <glyph glyph-name="l" unicode="l" horiz-adv-x="365" 
d="M335 0h-305v737h305v-737z" />
    <glyph glyph-name="m" unicode="m" horiz-adv-x="1097" 
d="M1065 0h-294v357q0 50 -37 50q-16 0 -28 -8.5t-12 -19.5v-379h-293v357q0 50 -35 50q-18 0 -30 -8.5t-12 -19.5v-379h-294v562h288l3 -109q45 120 192 120q73 0 122.5 -29.5t60.5 -92.5q15 57 61 89.5t123 32.5q87 0 136 -46t49 -135v-392z" />
    <glyph glyph-name="n" unicode="n" horiz-adv-x="739" 
d="M711 0h-297v351q0 56 -38 56q-48 0 -48 -34v-373h-298v562h292l3 -104q66 115 212 115q91 0 132.5 -37t41.5 -96v-440z" />
    <glyph glyph-name="o" unicode="o" horiz-adv-x="722" 
d="M711 263q0 -53 -21 -101t-61.5 -87.5t-109.5 -62.5t-157 -23q-166 0 -258.5 71t-92.5 203v38q0 110 95.5 192t258.5 82q150 0 248 -71t98 -203v-38zM404 227v101q0 60 -10 80t-35 20t-34.5 -20t-9.5 -80v-101q0 -65 10.5 -85t35.5 -20q23 0 33 20.5t10 84.5z" />
    <glyph glyph-name="p" unicode="p" horiz-adv-x="718" 
d="M702 252q0 -121 -69.5 -186.5t-195.5 -65.5q-105 0 -131 9v-176h-281v729h278l1 -47q14 22 56 40t106 18q66 0 113.5 -20.5t73.5 -57.5t37.5 -80.5t11.5 -96.5v-66zM398 199v166q0 50 -37 50q-33 0 -42 -30v-258q15 -5 38 -5q22 0 31.5 16.5t9.5 60.5z" />
    <glyph glyph-name="q" unicode="q" horiz-adv-x="724" 
d="M694 -167h-281v218q-32 -34 -66.5 -46.5t-83.5 -12.5q-105 0 -175.5 70.5t-70.5 173.5v80q0 104 74.5 178.5t197.5 74.5q91 0 145 -40l20 33h240v-729zM406 163v235q-19 19 -38 19q-41 0 -41 -66v-148q0 -52 9.5 -67.5t31.5 -15.5q18 0 28 11.5t10 31.5z" />
    <glyph glyph-name="r" unicode="r" horiz-adv-x="684" 
d="M670 321h-290q5 26 -1.5 47.5t-21.5 21.5q-27 0 -28 -27v-363h-300v562h294l3 -103q39 114 182 114q88 0 131.5 -67t30.5 -185z" />
    <glyph glyph-name="s" unicode="s" horiz-adv-x="584" 
d="M575 177q0 -185 -300 -185q-200 0 -260 28v145q25 -16 93.5 -27.5t117.5 -11.5t70 6.5t21 24.5q0 16 -22 25.5t-111 33.5q-96 24 -134 63.5t-38 110.5q0 78 74.5 131.5t212.5 53.5q174 0 248 -29v-147q-81 30 -177 30q-78 0 -78 -22q0 -12 10 -17t52 -16
q94 -24 143 -53.5t63.5 -61t14.5 -82.5z" />
    <glyph glyph-name="t" unicode="t" horiz-adv-x="442" 
d="M435 417h-78v-195q0 -43 5.5 -54t22.5 -11q28 0 46 10v-147q-76 -26 -182 -26q-192 0 -192 193v231h-55v133h57l51 182h234v-182h91v-134z" />
    <glyph glyph-name="u" unicode="u" horiz-adv-x="733" 
d="M703 0h-292l-3 53q-57 -66 -167 -66q-31 0 -58.5 4.5t-57 17t-51 33t-35.5 56t-14 81.5v383h298v-378q0 -19 2 -29.5t11 -19t27 -8.5q37 0 42 47v388h298v-562z" />
    <glyph glyph-name="v" unicode="v" horiz-adv-x="773" 
d="M770 562l-231 -562h-303l-233 562h307l94 -306l103 306h263z" />
    <glyph glyph-name="w" unicode="w" horiz-adv-x="1074" 
d="M529 292l-106 -292h-219l-202 562h283l80 -252l77 252h212l70 -252l82 252h267l-223 -562h-219z" />
    <glyph glyph-name="x" unicode="x" horiz-adv-x="794" 
d="M791 0h-353l-61 91l-68 -91h-293l232 261l-244 301h352l71 -104l74 104h292l-240 -267z" />
    <glyph glyph-name="y" unicode="y" horiz-adv-x="774" 
d="M772 562l-286 -729h-320l70 178l-230 551h303l99 -302l106 302h258z" />
    <glyph glyph-name="z" unicode="z" horiz-adv-x="664" 
d="M644 0h-618v134l239 283h-234v145h600v-147l-235 -283h248v-132z" />
    <glyph glyph-name="braceleft" unicode="{" horiz-adv-x="414" 
d="M404 -168h-190q-61 0 -97.5 35.5t-36.5 90.5v178q0 36 -14.5 51t-55.5 15v201q41 0 55.5 15t14.5 52v120q0 62 42.5 105t113.5 43h168v-146h-14q-18 0 -26.5 -18.5t-8.5 -43.5v-113q0 -41 -30.5 -72t-73.5 -37q44 -4 74 -33t30 -73v-176q-4 -48 35 -48h14v-146z" />
    <glyph glyph-name="bar" unicode="|" horiz-adv-x="412" 
d="M357 -200h-298v938h298v-938z" />
    <glyph glyph-name="braceright" unicode="}" horiz-adv-x="412" 
d="M10 -168v146h13q35 0 35 48v176q0 45 29.5 73.5t74.5 32.5q-44 6 -74 37t-30 72v113q0 25 -8.5 43.5t-26.5 18.5h-13v146h166q71 0 114 -43t43 -105v-120q0 -37 14 -52t55 -15v-201q-41 0 -55.5 -15t-14.5 -51v-178q0 -55 -36.5 -90.5t-97.5 -35.5h-188z" />
    <glyph glyph-name="asciitilde" unicode="~" horiz-adv-x="770" 
d="M374 278l-40 24l-30 18.5l-19.5 11.5t-17.5 7.5t-16 1.5q-19 0 -32.5 -13.5t-13.5 -33.5q0 -15 5.5 -28.5t11.5 -22t20 -24.5h-156q-26 20 -44.5 61.5t-18.5 86.5q0 62 50.5 107t126.5 45q106 0 203 -69q56 -39 79 -51t44 -12q19 0 32.5 13.5t13.5 33.5q0 15 -5.5 28.5
t-11.5 22t-20 24.5h156q26 -20 44.5 -61.5t18.5 -86.5q0 -62 -50.5 -107t-126.5 -45q-103 0 -203 69z" />
    <glyph glyph-name="exclamdown" unicode="&#xa1;" horiz-adv-x="372" 
d="M321 502h-265v235h265v-235zM357 0h-341l48 407h249z" />
    <glyph glyph-name="cent" unicode="&#xa2;" horiz-adv-x="581" 
d="M547 21q-22 -18 -92 -20v-71h-153v70q-128 15 -199 90.5t-71 210.5v24q0 122 75 193t195 82v78h153v-79q56 -5 91 -21v-158q-40 19 -103 19q-55 0 -85.5 -31t-30.5 -94v-8q0 -137 113 -137q69 0 107 12v-160z" />
    <glyph glyph-name="sterling" unicode="&#xa3;" horiz-adv-x="670" 
d="M661 0h-588v238h-67v198h67v62q0 118 93.5 183.5t236.5 65.5q144 0 231 -24v-191q-109 23 -177 23q-98 0 -98 -70v-49h200v-198h-200v-68h302v-170z" />
    <glyph glyph-name="currency" unicode="&#xa4;" horiz-adv-x="660" 
d="M650 20q-15 -10 -78.5 -21t-91.5 -11q-158 0 -258 57.5t-138 159.5h-63v117h41v80h-41v117h64q40 103 137 165.5t230 62.5q50 0 110.5 -7.5t87.5 -17.5v-167q-7 2 -25.5 10.5t-41.5 13t-59 4.5q-20 0 -34 -2.5t-31.5 -18t-28.5 -43.5h150v-117h-167v-80h167v-117h-152
q9 -24 21 -39t30.5 -20.5t29 -6.5t32.5 -1q37 0 109 28v-146z" />
    <glyph glyph-name="yen" unicode="&#xa5;" horiz-adv-x="764" 
d="M768 737l-255 -383v-40h157v-114h-157v-38h157v-114h-157v-48h-266v48h-157v114h157v38h-157v114h157v23l-249 400h254l142 -228l142 228h232z" />
    <glyph glyph-name="brokenbar" unicode="&#xa6;" horiz-adv-x="415" 
d="M332 367h-246v433h246v-433zM332 -200h-246v431h246v-431z" />
    <glyph glyph-name="section" unicode="&#xa7;" horiz-adv-x="521" 
d="M486 137q0 -177 -250 -177q-53 0 -123 11t-101 21v175q101 -44 165 -44q25 0 35.5 3t10.5 14q0 14 -13.5 22t-65.5 28q-64 25 -93 61t-29 98q0 31 15 63t44 51q-50 50 -50 116q0 170 226 170q52 0 111 -13.5t92 -32.5v-166q-86 55 -149 55q-12 0 -17.5 -0.5t-12 -1.5
t-9 -4.5t-2.5 -9.5q0 -14 16.5 -24.5t81.5 -34.5q76 -30 103.5 -66t27.5 -98q0 -29 -14 -59.5t-40 -50.5q41 -47 41 -106zM296 344q0 8 -5.5 14t-10.5 9t-18 8q-1 1 -7.5 4t-11.5 5q-12 -10 -12 -23q0 -8 6 -14.5t11.5 -9.5t19.5 -9q2 -1 7 -3t8 -4q13 10 13 23z" />
    <glyph glyph-name="dieresis" unicode="&#xa8;" 
d="M485 702q0 -48 -32 -80t-79 -32q-45 0 -77 32.5t-32 79.5q0 44 32 77t77 33q47 0 79 -33t32 -77zM234 702q0 -48 -32 -80t-79 -32q-45 0 -77 32.5t-32 79.5q0 44 32 77t77 33q47 0 79 -33t32 -77z" />
    <glyph glyph-name="copyright" unicode="&#xa9;" horiz-adv-x="784" 
d="M736 337q0 -145 -97.5 -234.5t-246.5 -89.5q-151 0 -247.5 89t-96.5 235t97 236t247 90q148 0 246 -91.5t98 -234.5zM659 337q0 108 -78.5 182t-188.5 74q-114 0 -190 -71.5t-76 -184.5q0 -121 72.5 -188.5t193.5 -67.5q120 0 193.5 70t73.5 186zM539 185
q-42 -25 -136 -25q-81 0 -135.5 43.5t-54.5 117.5v17q0 80 50.5 121.5t144.5 41.5q85 0 131 -24v-112q-33 26 -70 26q-27 0 -40.5 -11.5t-13.5 -46.5v-7q0 -26 14 -38t35 -12q38 0 75 25v-116z" />
    <glyph glyph-name="ordfeminine" unicode="&#xaa;" horiz-adv-x="593" 
d="M575 283h-238l-1 49q-15 -25 -53 -40t-84 -15q-81 0 -134 40t-53 113v8q0 75 61 120t152 45q27 0 61 -8.5t47 -18.5v21q0 21 -21.5 29t-66.5 8q-42 0 -92 -12.5t-74 -28.5v118q81 36 221 36q79 0 138.5 -15t98 -52t38.5 -93v-304zM574 93h-553v153h553v-153zM336 437v9
q0 29 -7.5 38t-32.5 9q-22 0 -30 -10.5t-8 -36.5v-10q0 -23 7.5 -31.5t31.5 -8.5q25 0 32 8.5t7 32.5z" />
    <glyph glyph-name="guillemotleft" unicode="&#xab;" horiz-adv-x="783" 
d="M749 -10l-342 212v174l342 216v-194l-159 -107l159 -97v-204zM369 -10l-342 212v174l342 216v-194l-159 -107l159 -97v-204z" />
    <glyph glyph-name="logicalnot" unicode="&#xac;" horiz-adv-x="623" 
d="M581 145h-187v138h-342v186h529v-324z" />
    <glyph glyph-name="registered" unicode="&#xae;" horiz-adv-x="784" 
d="M736 337q0 -145 -97.5 -234.5t-246.5 -89.5q-151 0 -247.5 89t-96.5 235q0 144 97.5 235t246.5 91q148 0 246 -91.5t98 -234.5zM659 337q0 108 -78.5 182t-188.5 74q-117 0 -191.5 -70t-74.5 -186q0 -121 72.5 -188.5t193.5 -67.5q123 0 195 68t72 188zM583 167h-163v104
q0 28 -15 28h-21v-132h-168v347h250q55 0 87 -21t32 -54v-30q0 -65 -58 -70q56 -14 56 -89v-83zM423 406v13q0 19 -18 19h-21v-53h21q18 0 18 21z" />
    <glyph glyph-name="macron" unicode="&#xaf;" 
d="M435 622h-371v139h371v-139z" />
    <glyph glyph-name="macron" unicode="&#x2c9;" 
d="M435 622h-371v139h371v-139z" />
    <glyph glyph-name="degree" unicode="&#xb0;" horiz-adv-x="482" 
d="M464 532q0 -88 -64 -152t-152 -64t-152 64t-64 152t64 152t152 64t152 -64t64 -152zM297 532q0 22 -14 36.5t-35 14.5q-20 0 -34 -14.5t-14 -36.5t14 -37t34 -15q21 0 35 15t14 37z" />
    <glyph glyph-name="plusminus" unicode="&#xb1;" horiz-adv-x="606" 
d="M546 306h-166v-133h-170v133h-165v155h165v133h170v-133h166v-155zM551 0h-506v156h506v-156z" />
    <glyph glyph-name="twosuperior" unicode="&#xb2;" horiz-adv-x="528" 
d="M495 288h-451v136q233 71 233 149q0 38 -24 38q-28 0 -28 -50h-189q6 89 70.5 137t164.5 48q99 0 160 -39.5t61 -112.5q0 -48 -42 -92.5t-95 -62.5h140v-151z" />
    <glyph glyph-name="threesuperior" unicode="&#xb3;" horiz-adv-x="534" 
d="M513 418q0 -64 -57 -102t-180 -38q-198 0 -252 86l109 72q15 -25 42.5 -38.5t55.5 -13.5q55 0 55 39q0 40 -48 40h-77v110h78q45 0 45 35q0 28 -36 28q-41 0 -41 -37h-177q8 73 75.5 110t176.5 37t164 -31.5t55 -86.5q0 -82 -79 -103q39 -11 65 -40.5t26 -66.5z" />
    <glyph glyph-name="acute" unicode="&#xb4;" 
d="M472 769l-160 -173h-226l122 173h264z" />
    <glyph glyph-name="mu" unicode="&#xb5;" horiz-adv-x="733" 
d="M703 0h-292l-3 53q-20 -22 -41 -35q-23 -13 -46 -20v-165h-296v729h298v-378q0 -19 2 -29.5t11 -19t27 -8.5q37 0 42 47v388h298v-562z" />
    <glyph glyph-name="mu" unicode="&#x3bc;" horiz-adv-x="733" 
d="M703 0h-292l-3 53q-20 -22 -41 -35q-23 -13 -46 -20v-165h-296v729h298v-378q0 -19 2 -29.5t11 -19t27 -8.5q37 0 42 47v388h298v-562z" />
    <glyph glyph-name="paragraph" unicode="&#xb6;" horiz-adv-x="662" 
d="M625 0h-125v577h-44v-577h-136v201q-311 0 -311 214v105q0 96 67.5 156.5t169.5 60.5h379v-737zM317 366v209q-55 0 -55 -102q0 -55 11.5 -81t43.5 -26z" />
    <glyph glyph-name="periodcentered" unicode="&#xb7;" horiz-adv-x="318" 
d="M304 230h-287v234h287v-234z" />
    <glyph glyph-name="periodcentered" unicode="&#x2219;" horiz-adv-x="318" 
d="M304 230h-287v234h287v-234z" />
    <glyph glyph-name="cedilla" unicode="&#xb8;" 
d="M434 -125q0 -55 -44 -85t-127 -30q-53 0 -103 11v90q30 -8 59 -8q48 0 48 32q0 17 -11.5 24.5t-38.5 7.5h-46v95h119v-40q76 0 110 -24.5t34 -72.5z" />
    <glyph glyph-name="onesuperior" unicode="&#xb9;" horiz-adv-x="390" 
d="M353 288h-251v223h-79v163q53 5 80 25t31 39h219v-450z" />
    <glyph glyph-name="ordmasculine" unicode="&#xba;" horiz-adv-x="599" 
d="M593 495q0 -108 -81 -165.5t-210 -57.5q-124 0 -207 58t-83 165v30q0 100 79.5 161.5t210.5 61.5q126 0 208.5 -63t82.5 -160v-30zM573 93h-551v153h551v-153zM346 508v4q0 65 -9.5 86.5t-34.5 21.5q-24 0 -33.5 -22t-9.5 -86v-4q0 -64 10.5 -85.5t32.5 -21.5
q21 0 32.5 22t11.5 85z" />
    <glyph glyph-name="guillemotright" unicode="&#xbb;" horiz-adv-x="783" 
d="M413 -10v204l159 97l-159 107v194l342 -216v-174zM33 -10v204l159 97l-159 107v194l342 -216v-174z" />
    <glyph glyph-name="onequarter" unicode="&#xbc;" horiz-adv-x="1088" 
d="M353 288h-251v223h-79v163q53 5 80 25t31 39h219v-450zM845 737l-462 -737h-186l462 737h186zM1089 82h-76v-82h-226v82h-219v130l252 250h193v-248h76v-132zM787 214v72l-73 -72h73z" />
    <glyph glyph-name="onehalf" unicode="&#xbd;" horiz-adv-x="1108" 
d="M353 288h-251v223h-79v163q53 5 80 25t31 39h219v-450zM845 737l-462 -737h-186l462 737h186zM1095 0h-451v136q233 71 233 149q0 38 -24 38q-28 0 -28 -50h-189q6 89 70.5 137t164.5 48q99 0 160 -39.5t61 -112.5q0 -48 -42 -92.5t-95 -62.5h140v-151z" />
    <glyph glyph-name="threequarters" unicode="&#xbe;" horiz-adv-x="1182" 
d="M493 418q0 -64 -57 -102t-180 -38q-198 0 -252 86l109 72q15 -25 42.5 -38.5t55.5 -13.5q55 0 55 39q0 40 -48 40h-77v110h78q45 0 45 35q0 28 -36 28q-41 0 -41 -37h-177q8 73 75.5 110t176.5 37t164 -31.5t55 -86.5q0 -82 -79 -103q39 -11 65 -40.5t26 -66.5zM935 737
l-462 -737h-186l462 737h186zM1179 82h-76v-82h-226v82h-219v130l252 250h193v-248h76v-132zM877 214v72l-73 -72h73z" />
    <glyph glyph-name="questiondown" unicode="&#xbf;" horiz-adv-x="659" 
d="M211 737h289v-225h-289v225zM21 150q0 51 18 81.5t59 58.5q69 47 86 66q29 33 29 80v28h293v-30q0 -13 -0.5 -24t-3.5 -21.5t-4 -16.5t-7 -15t-7 -12t-10 -11.5l-10.5 -10t-13 -11.5t-13.5 -11l-18 -14t-19 -16t-10.5 -15t-5.5 -21q0 -63 119 -63q93 0 135 37v-181
q-22 -17 -109.5 -30.5t-186.5 -13.5q-133 0 -227 44t-94 122z" />
    <glyph glyph-name="divide" unicode="&#xf7;" horiz-adv-x="688" 
d="M459 542q0 -48 -32.5 -80.5t-81.5 -32.5t-81.5 33t-32.5 80q0 48 32.5 81t81.5 33t81.5 -33t32.5 -81zM640 222h-589v188h589v-188zM459 91q0 -47 -32.5 -80t-81.5 -33t-81.5 33t-32.5 80q0 48 32.5 81t81.5 33t81.5 -33t32.5 -81z" />
    <glyph glyph-name="florin" unicode="&#x192;" horiz-adv-x="572" 
d="M604 691l-77 -140q-32 28 -67 28q-53 0 -53 -77v-61h128v-145h-128v-208q0 -118 -62.5 -189.5t-180.5 -71.5q-136 0 -206 62l77 140q23 -34 63 -34q53 0 53 77v224h-73v145h73v45q0 127 60.5 194t182.5 67q126 0 210 -56z" />
    <glyph glyph-name="circumflex" unicode="&#x2c6;" 
d="M481 598h-146l-85 64l-85 -64h-146l141 178h180z" />
    <glyph glyph-name="caron" unicode="&#x2c7;" 
d="M481 776l-141 -178h-180l-141 178h146l85 -64l85 64h146z" />
    <glyph glyph-name="breve" unicode="&#x2d8;" 
d="M452 800q0 -95 -59 -155.5t-143 -60.5q-88 0 -145 60t-57 156h118q8 -86 84 -86q72 0 82 86h120z" />
    <glyph glyph-name="dotaccent" unicode="&#x2d9;" 
d="M364 690q0 -48 -33 -80.5t-81 -32.5t-81 32.5t-33 80.5t33 81t81 33t81 -33t33 -81z" />
    <glyph glyph-name="ring" unicode="&#x2da;" 
d="M399 719q0 -61 -42 -101.5t-107 -40.5t-107 40.5t-42 101.5t42 101.5t107 40.5t107 -40.5t42 -101.5zM292 719q0 17 -12.5 29.5t-29.5 12.5t-29.5 -12.5t-12.5 -29.5t13 -29.5t29 -12.5q17 0 29.5 12.5t12.5 29.5z" />
    <glyph glyph-name="ogonek" unicode="&#x2db;" 
d="M342 -224q-39 -16 -97 -16q-129 0 -129 120q0 53 38.5 86.5t95.5 33.5h62v-93h-22q-29 0 -40 -5.5t-11 -21.5q0 -27 40 -27q26 0 41 7z" />
    <glyph glyph-name="tilde" unicode="&#x2dc;" 
d="M510 697q-21 -51 -66.5 -82.5t-93.5 -31.5q-45 0 -78 14t-57.5 28t-48.5 14q-46 0 -75 -43l-99 82q22 44 70 81.5t96 37.5q41 0 72 -15t55.5 -30t50.5 -15q43 0 72 42z" />
    <glyph glyph-name="hungarumlaut" unicode="&#x2dd;" 
d="M548 769l-160 -173h-156l122 173h194zM332 769l-160 -173h-156l122 173h194z" />
    <glyph glyph-name="Delta" unicode="&#x394;" horiz-adv-x="771" 
d="M767 0h-768l294 737h194zM495 160l-123 332l-125 -332h248z" />
    <glyph glyph-name="Delta" unicode="&#x2206;" horiz-adv-x="771" 
d="M767 0h-768l294 737h194zM495 160l-123 332l-125 -332h248z" />
    <glyph glyph-name="Omega" unicode="&#x3a9;" horiz-adv-x="808" 
d="M791 406q0 -82 -54.5 -137t-141.5 -76v-18h190v-175h-363v221q40 14 48.5 48.5t8.5 155.5v20q0 88 -17 129t-58 41q-43 0 -59 -40.5t-16 -129.5v-20q0 -119 9 -153t48 -51v-221h-363v175h190v18q-79 14 -137.5 70t-58.5 152v47q0 123 102.5 204t288.5 81q174 0 278.5 -78
t104.5 -207v-56z" />
    <glyph glyph-name="Omega" unicode="&#x2126;" horiz-adv-x="808" 
d="M791 406q0 -82 -54.5 -137t-141.5 -76v-18h190v-175h-363v221q40 14 48.5 48.5t8.5 155.5v20q0 88 -17 129t-58 41q-43 0 -59 -40.5t-16 -129.5v-20q0 -119 9 -153t48 -51v-221h-363v175h190v18q-79 14 -137.5 70t-58.5 152v47q0 123 102.5 204t288.5 81q174 0 278.5 -78
t104.5 -207v-56z" />
    <glyph glyph-name="pi" unicode="&#x3c0;" horiz-adv-x="790" 
d="M784 405h-50v-405h-296v405h-86v-405h-296v405h-50v157h778v-157z" />
    <glyph glyph-name="uni0401" unicode="&#x401;" horiz-adv-x="602" 
d="M585 0h-539v737h519v-150h-205v-131h162v-165h-162v-137h225v-154zM536 882q0 -48 -32 -80t-79 -32q-45 0 -77 32.5t-32 79.5q0 44 32 77t77 33q47 0 79 -33t32 -77zM285 882q0 -48 -32 -80t-79 -32q-45 0 -77 32.5t-32 79.5q0 44 32 77t77 33q47 0 79 -33t32 -77z" />
    <glyph glyph-name="uni0402" unicode="&#x402;" horiz-adv-x="905" 
d="M525 302h27q35 0 35 -52v-51q0 -29 -10 -42t-20 -13v-144h69q141 0 199 58.5t58 175.5q0 120 -63.5 167t-200.5 47h-94v137h184v152h-704v-152h191v-585h329v302z" />
    <glyph glyph-name="uni0403" unicode="&#x403;" horiz-adv-x="624" 
d="M572 949l-160 -173h-226l122 173h264zM372 0h-326v737h569v-180h-243v-557z" />
    <glyph glyph-name="uni0404" unicode="&#x404;" horiz-adv-x="606" 
d="M600 20q-15 -10 -78.5 -21t-91.5 -11q-208 0 -313 89t-105 257v57q0 163 107 259.5t283 96.5q50 0 110.5 -7.5t87.5 -17.5v-167q-7 2 -25.5 10.5t-41.5 13t-59 4.5q-27 0 -42 -3.5t-32 -16.5t-25 -44t-11 -81h142v-155h-142q2 -41 8.5 -68.5t15.5 -43t26.5 -23t33 -9
t43.5 -1.5q42 0 109 28v-146z" />
    <glyph glyph-name="uni0405" unicode="&#x405;" horiz-adv-x="642" 
d="M628 209q0 -110 -72.5 -168t-237.5 -58q-92 0 -175.5 13.5t-122.5 30.5v165q34 -16 95.5 -29.5t108.5 -13.5q65 0 65 49q0 29 -20.5 45t-73.5 39q-9 4 -14 6q-76 33 -117.5 83t-41.5 143q0 97 83 161.5t232 64.5q135 0 238 -18v-167q-22 8 -74.5 16t-94.5 8
q-71 0 -71 -47q0 -30 24.5 -49.5t99.5 -47.5q169 -64 169 -226z" />
    <glyph glyph-name="uni0406" unicode="&#x406;" horiz-adv-x="420" 
d="M373 0h-326v737h326v-737z" />
    <glyph glyph-name="uni0407" unicode="&#x407;" horiz-adv-x="420" 
d="M373 0h-326v737h326v-737zM445 882q0 -48 -32 -80t-79 -32q-45 0 -77 32.5t-32 79.5q0 44 32 77t77 33q47 0 79 -33t32 -77zM194 882q0 -48 -32 -80t-79 -32q-45 0 -77 32.5t-32 79.5q0 44 32 77t77 33q47 0 79 -33t32 -77z" />
    <glyph glyph-name="uni0408" unicode="&#x408;" horiz-adv-x="528" 
d="M491 203q0 -210 -275 -210q-154 0 -210 26v153q26 -12 81 -12q27 0 50.5 16t23.5 58v503h330v-534z" />
    <glyph glyph-name="uni0409" unicode="&#x409;" horiz-adv-x="1195" 
d="M924 0h-407v564h-64q-18 -247 -27 -361q-3 -34 -7 -57.5t-18 -55t-37.5 -50.5t-66.5 -33t-102 -14q-134 0 -190 26v184q27 -12 61 -12q22 0 36.5 15.5t17.5 58.5l34 472h679v-253h84q139 0 201.5 -48t62.5 -181q0 -131 -57.5 -193t-199.5 -62zM860 219v67q0 52 -27 52
h-15v-174h17q9 0 17 13t8 42z" />
    <glyph glyph-name="uni040A" unicode="&#x40a;" horiz-adv-x="1117" 
d="M846 0h-407v287h-77v-287h-316v737h316v-277h77v277h315v-253h85q139 0 201.5 -48t62.5 -181q0 -131 -57.5 -193t-199.5 -62zM781 219v67q0 52 -27 52h-15v-174h17q9 0 17 13t8 42z" />
    <glyph glyph-name="uni040B" unicode="&#x40b;" horiz-adv-x="905" 
d="M587 0h296v234q0 120 -63.5 167t-200.5 47h-94v137h184v152h-704v-152h191v-585h329v302h27q35 0 35 -52v-250z" />
    <glyph glyph-name="uni040C" unicode="&#x40c;" horiz-adv-x="800" 
d="M652 949l-160 -173h-226l122 173h264zM372 439h22q15 0 22 16.5t11.5 82t4.5 199.5h327q0 -187 -23.5 -263.5t-96.5 -91.5q75 -16 100.5 -103t25.5 -279h-327q0 134 -4.5 200t-11.5 82.5t-22 16.5h-28v-299h-326v737h326v-298z" />
    <glyph glyph-name="uni040E" unicode="&#x40e;" horiz-adv-x="808" 
d="M653 976q0 -95 -59 -155.5t-143 -60.5q-88 0 -145 60t-57 156h118q8 -86 84 -86q72 0 82 86h120zM803 737l-196 -537q-40 -110 -114.5 -158.5t-195.5 -48.5q-132 0 -188 26v176q55 -21 138 -21q38 0 67 15l-309 548h360l97 -256l76 256h265z" />
    <glyph glyph-name="uni040F" unicode="&#x40f;" horiz-adv-x="804" 
d="M521 0h237v737h-317v-564h-77v564h-318v-737h238v-184h237v184z" />
    <glyph glyph-name="uni0410" unicode="&#x410;" horiz-adv-x="749" 
d="M747 0h-341l-25 133h-118l-30 -133h-228l242 737h258zM357 279l-30 131l-32 -131h62z" />
    <glyph glyph-name="uni0411" unicode="&#x411;" horiz-adv-x="738" 
d="M46 0h421q142 0 199.5 62t57.5 193q0 133 -62.5 181t-201.5 48h-91v103h240v150h-563v-737zM396 286v-67q0 -29 -8 -42t-17 -13h-17v174h15q27 0 27 -52z" />
    <glyph glyph-name="uni0412" unicode="&#x412;" horiz-adv-x="714" 
d="M697 224q0 -115 -78.5 -169.5t-210.5 -54.5h-362v737h367q70 0 117.5 -11.5t71.5 -34t33.5 -49t9.5 -63.5q0 -70 -38.5 -109.5t-105.5 -47.5q33 -3 64.5 -13t62.5 -31.5t50 -61t19 -92.5zM377 504v37q0 29 -8 42t-17 13h-13v-144h11q27 0 27 52zM381 200v67q0 52 -25 52
h-17v-169h15q27 0 27 50z" />
    <glyph glyph-name="uni0413" unicode="&#x413;" horiz-adv-x="624" 
d="M372 0h-326v737h569v-180h-243v-557z" />
    <glyph glyph-name="uni0414" unicode="&#x414;" horiz-adv-x="946" 
d="M697 -184v184h-450v-184h-237v357h49q22 0 36.5 15.5t17.5 58.5l35 490h698v-564h88v-357h-237zM424 203q-3 -25 -7 -32h109v395h-75q-18 -249 -27 -363z" />
    <glyph glyph-name="uni0415" unicode="&#x415;" horiz-adv-x="602" 
d="M585 0h-539v737h519v-150h-205v-131h162v-165h-162v-137h225v-154z" />
    <glyph glyph-name="uni0416" unicode="&#x416;" horiz-adv-x="1170" 
d="M402 439h22v298h322v-298h22q15 0 22 16.5t11.5 82t4.5 199.5h323q0 -187 -23.5 -263.5t-96.5 -91.5q75 -16 100.5 -103t25.5 -279h-323q0 134 -4.5 200t-11.5 82.5t-22 16.5h-28v-299h-322v299h-28q-15 0 -22 -16.5t-11.5 -82.5t-4.5 -200h-323q0 192 25.5 279
t100.5 103q-73 15 -96.5 91.5t-23.5 263.5h323q0 -134 4.5 -199.5t11.5 -82t22 -16.5z" />
    <glyph glyph-name="uni0417" unicode="&#x417;" horiz-adv-x="588" 
d="M155 158q-68 0 -140 28v-166q16 -10 84.5 -20.5t119.5 -10.5q164 0 259 58t95 163q0 80 -44.5 129.5t-125.5 56.5q153 13 153 152q0 200 -343 200q-50 0 -110.5 -7.5t-87.5 -17.5v-160q2 0 28.5 10t52 14.5t61.5 4.5q70 0 95 -16.5t25 -53.5q0 -30 -23 -49t-63 -19h-111
v-143h81q120 0 120 -77q0 -44 -33.5 -60t-92.5 -16z" />
    <glyph glyph-name="uni0418" unicode="&#x418;" horiz-adv-x="798" 
d="M46 0h271l173 272v-272h265v737h-239l-204 -295v295h-266v-737z" />
    <glyph glyph-name="uni0419" unicode="&#x419;" horiz-adv-x="798" 
d="M601 976q0 -95 -59 -155.5t-143 -60.5q-88 0 -145 60t-57 156h118q8 -86 84 -86q72 0 82 86h120zM46 0h271l173 272v-272h265v737h-239l-204 -295v295h-266v-737z" />
    <glyph glyph-name="uni041A" unicode="&#x41a;" horiz-adv-x="800" 
d="M372 439h22q15 0 22 16.5t11.5 82t4.5 199.5h327q0 -187 -23.5 -263.5t-96.5 -91.5q75 -16 100.5 -103t25.5 -279h-327q0 134 -4.5 200t-11.5 82.5t-22 16.5h-28v-299h-326v737h326v-298z" />
    <glyph glyph-name="uni041B" unicode="&#x41b;" horiz-adv-x="905" 
d="M12 203q27 -12 61 -12q22 0 36.5 15.5t17.5 58.5l34 472h698v-737h-325v564h-64q-18 -247 -27 -361q-2 -32 -7.5 -57t-21 -55.5t-40.5 -50.5t-69 -33.5t-103 -13.5q-134 0 -190 26v184z" />
    <glyph glyph-name="uni041C" unicode="&#x41c;" horiz-adv-x="1032" 
d="M990 0h-282v326l-112 -326h-208l-121 326v-326h-221v737h290l182 -429l172 429h300v-737z" />
    <glyph glyph-name="uni041D" unicode="&#x41d;" horiz-adv-x="820" 
d="M774 0h-325v287h-77v-287h-326v737h326v-277h77v277h325v-737z" />
    <glyph glyph-name="uni041E" unicode="&#x41e;" horiz-adv-x="781" 
d="M764 337q0 -168 -102.5 -258.5t-271.5 -90.5q-177 0 -275 87.5t-98 259.5v61q0 154 96 252.5t277 98.5q180 0 277 -97.5t97 -253.5v-59zM424 315v103q0 149 -10 168q-5 11 -24 11q-21 0 -27 -17q-7 -22 -7 -162v-101v-151q3 -30 20 -34q6 -1 14 -1q26 0 30.5 17t3.5 102
v65z" />
    <glyph glyph-name="uni041F" unicode="&#x41f;" horiz-adv-x="812" 
d="M766 0h-321v564h-77v-564h-322v737h720v-737z" />
    <glyph glyph-name="uni0420" unicode="&#x420;" horiz-adv-x="744" 
d="M730 418q0 -85 -66 -125t-198 -40h-94v-253h-326v737h427q70 0 122.5 -16.5t80.5 -43.5t41 -55.5t13 -57.5v-146zM399 451v67q0 29 -8 42t-17 13h-17v-174h15q27 0 27 52z" />
    <glyph glyph-name="uni0421" unicode="&#x421;" horiz-adv-x="606" 
d="M600 20q-15 -10 -78.5 -21t-91.5 -11q-204 0 -311 94.5t-107 251.5v57q0 151 108.5 253.5t281.5 102.5q50 0 110.5 -7.5t87.5 -17.5v-167q-7 2 -25.5 10.5t-41.5 13t-59 4.5q-23 0 -38 -4.5t-34 -21.5t-29 -59t-10 -108v-62q0 -35 3 -63.5t9.5 -48t12.5 -33.5t17.5 -22.5
t19 -13.5t22.5 -6.5t21.5 -2t22.5 -0.5q37 0 109 28v-146z" />
    <glyph glyph-name="uni0422" unicode="&#x422;" horiz-adv-x="718" 
d="M709 585h-184v-585h-329v585h-191v152h704v-152z" />
    <glyph glyph-name="uni0423" unicode="&#x423;" horiz-adv-x="808" 
d="M803 737l-196 -537q-40 -110 -114.5 -158.5t-195.5 -48.5q-132 0 -188 26v176q55 -21 138 -21q38 0 67 15l-309 548h360l97 -256l76 256h265z" />
    <glyph glyph-name="uni0424" unicode="&#x424;" horiz-adv-x="1101" 
d="M17 347v39q0 66 19.5 117t64 93t124 68.5t192.5 36.5v52h266v-52q113 -10 192.5 -36.5t124 -68.5t64.5 -93t20 -117v-39q0 -66 -20 -117t-64.5 -93.5t-124 -69t-192.5 -36.5v-31h-266v31q-113 10 -192.5 36.5t-124 69t-64 93.5t-19.5 117zM744 345v43q0 99 -61 139v-323
q61 42 61 141zM356 347q0 -96 61 -141v319q-61 -42 -61 -137v-41z" />
    <glyph glyph-name="uni0425" unicode="&#x425;" horiz-adv-x="782" 
d="M773 0h-355l-68 160l-77 -160h-261l215 345l-229 392h354l53 -119l70 119h253l-198 -322z" />
    <glyph glyph-name="uni0426" unicode="&#x426;" horiz-adv-x="858" 
d="M846 173h-88v564h-317v-564h-77v564h-318v-737h563v-184h237v357z" />
    <glyph glyph-name="uni0427" unicode="&#x427;" horiz-adv-x="744" 
d="M14 737v-319q0 -85 66 -125t198 -40h94v-253h326v737h-311v-328h-15q-27 0 -27 52v276h-331z" />
    <glyph glyph-name="uni0428" unicode="&#x428;" horiz-adv-x="1192" 
d="M754 737h-315v-564h-77v564h-316v-737h1100v737h-315v-564h-77v564z" />
    <glyph glyph-name="uni0429" unicode="&#x429;" horiz-adv-x="1243" 
d="M994 0v-184h237v357h-85v564h-315v-564h-77v564h-315v-564h-77v564h-316v-737h948z" />
    <glyph glyph-name="uni042A" unicode="&#x42a;" horiz-adv-x="838" 
d="M498 286v-67q0 -29 -8 -42t-17 -13h-17v174h15q27 0 27 -52zM560 484h-89v253h-466v-152h145v-585h417q142 0 199.5 62t57.5 193q0 133 -62.5 181t-201.5 48z" />
    <glyph glyph-name="uni042B" unicode="&#x42b;" horiz-adv-x="1132" 
d="M46 0h407q142 0 199.5 62t57.5 193q0 133 -62.5 181t-201.5 48h-84v253h-316v-737zM389 286v-67q0 -29 -8 -42t-17 -13h-17v174h15q27 0 27 -52zM1086 0h-316v737h316v-737z" />
    <glyph glyph-name="uni042C" unicode="&#x42c;" horiz-adv-x="744" 
d="M46 0h427q142 0 199.5 62t57.5 193q0 133 -62.5 181t-201.5 48h-94v253h-326v-737zM399 286v-67q0 -29 -8 -42t-17 -13h-17v174h15q27 0 27 -52z" />
    <glyph glyph-name="uni042D" unicode="&#x42d;" horiz-adv-x="606" 
d="M6 20q15 -10 78.5 -21t91.5 -11q208 0 313 89t105 257v57q0 163 -107 259.5t-283 96.5q-50 0 -110.5 -7.5t-87.5 -17.5v-167q7 2 25.5 10.5t41.5 13t59 4.5q27 0 42 -3.5t32 -16.5t25 -44t11 -81h-142v-155h142q-2 -41 -8.5 -68.5t-15.5 -43t-26.5 -23t-33 -9t-43.5 -1.5
q-42 0 -109 28v-146z" />
    <glyph glyph-name="uni042E" unicode="&#x42e;" horiz-adv-x="1161" 
d="M363 0h-316v737h316v-281h58q18 132 107.5 211.5t251.5 79.5q178 0 271 -96.5t93 -254.5v-59q0 -169 -98 -259t-266 -90q-164 0 -256 76t-105 227h-56v-291zM814 315v103q0 149 -10 168q-5 11 -24 11q-21 0 -27 -17q-7 -22 -7 -162v-101v-151q3 -30 20 -34q6 -1 14 -1
q26 0 30.5 17t3.5 102v65z" />
    <glyph glyph-name="uni042F" unicode="&#x42f;" horiz-adv-x="800" 
d="M35 0h327q0 134 4.5 200t11.5 82.5t22 16.5h28v-299h326v737h-478q-98 0 -152 -46.5t-54 -117.5v-53q0 -59 20 -93t71 -45q-75 -16 -100.5 -103t-25.5 -279zM388 492v51q0 55 18 55h22v-159h-22q-18 0 -18 53z" />
    <glyph glyph-name="uni0430" unicode="&#x430;" horiz-adv-x="691" 
d="M670 0h-274l-9 81q-16 -36 -65.5 -62t-117.5 -26q-81 0 -137 42.5t-56 121.5v39q0 72 59 127.5t152 55.5q85 0 153 -22v25q0 28 -33 41t-75 13q-49 0 -121 -15t-92 -30v138q25 17 109 32.5t217 15.5q159 0 224.5 -62.5t65.5 -198.5v-316zM386 174v43q0 45 -26 45
q-27 0 -27 -46v-34q0 -46 28 -46q25 0 25 38z" />
    <glyph glyph-name="uni0431" unicode="&#x431;" horiz-adv-x="722" 
d="M404 227v51q0 60 -10 80t-35 20t-34.5 -20t-9.5 -80v-51q0 -65 10.5 -85t35.5 -20q23 0 33 20.5t10 84.5zM582 745v-144l-172 -15q-105 -9 -151 -33.5t-57 -79.5q44 52 183 52q92 0 164 -26.5t117 -85t45 -142.5v-8q0 -53 -21 -101t-61.5 -87.5t-109.5 -62.5t-157 -23
q-166 0 -258.5 71t-92.5 203q0 12 0.5 58t0.5 120q0 64 27.5 114.5t77 82.5t109.5 51.5t133 28.5z" />
    <glyph glyph-name="uni0432" unicode="&#x432;" horiz-adv-x="633" 
d="M621 171q0 -88 -59.5 -129.5t-160.5 -41.5h-371v562h375q102 0 139.5 -31.5t37.5 -89.5q0 -54 -29.5 -84t-80.5 -35q58 -5 103.5 -40t45.5 -111zM337 384v28q0 22 -8.5 32t-17.5 10h-13v-109h12q27 0 27 39zM340 152v52q0 21 -8.5 30t-17.5 9h-16v-129h15q27 0 27 38z
" />
    <glyph glyph-name="uni0433" unicode="&#x433;" horiz-adv-x="521" 
d="M328 0h-298v562h483v-154h-185v-408z" />
    <glyph glyph-name="uni0434" unicode="&#x434;" horiz-adv-x="869" 
d="M12 144h73q33 2 38 57l26 361h624v-418h84v-328h-208v184h-429v-184h-208v328zM396 170q-1 -19 -5 -26h93v284h-69q-12 -171 -19 -258z" />
    <glyph glyph-name="uni0435" unicode="&#x435;" horiz-adv-x="652" 
d="M641 240h-334q0 -51 26 -76t86 -25q102 0 195 59v-154q-87 -56 -263 -56q-168 0 -254 70t-86 204v40q0 111 88 193.5t232 82.5q149 0 229.5 -77.5t80.5 -195.5v-65zM384 337q0 62 -7.5 83t-31.5 21q-23 0 -30 -20t-7 -84h76z" />
    <glyph glyph-name="uni0436" unicode="&#x436;" horiz-adv-x="973" 
d="M354 335v227h265v-227h22q11 0 17 6t11 29t6.5 68t1.5 124h268q0 -149 -15 -203.5t-72 -66.5q58 -12 77 -78.5t19 -213.5h-270q0 80 -1.5 124.5t-7 68t-11.5 29.5t-19 6h-26v-228h-265v228h-26q-13 0 -19 -6t-11.5 -29.5t-7 -68t-1.5 -124.5h-270q0 147 19 213.5t77 78.5
q-57 12 -72 66.5t-15 203.5h268q0 -79 1.5 -124t6.5 -68t11 -29t17 -6h22z" />
    <glyph glyph-name="uni0437" unicode="&#x437;" horiz-adv-x="503" 
d="M126 131q-62 0 -114 30v-136q63 -33 181 -33q143 0 219.5 43.5t76.5 124.5q0 61 -34.5 99t-95.5 43q117 10 117 117q0 157 -275 157q-107 0 -189 -35v-131q58 32 117 32q47 0 65.5 -12.5t18.5 -36.5q0 -20 -18 -33t-48 -13h-85v-109h62q92 0 92 -54q0 -53 -90 -53z" />
    <glyph glyph-name="uni0438" unicode="&#x438;" horiz-adv-x="700" 
d="M30 0h266l132 207v-207h242v562h-242l-156 -225v225h-242v-562z" />
    <glyph glyph-name="uni0439" unicode="&#x439;" horiz-adv-x="700" 
d="M30 0h266l132 207v-207h242v562h-242l-156 -225v225h-242v-562zM556 800q0 -95 -59 -155.5t-143 -60.5q-88 0 -145 60t-57 156h118q8 -86 84 -86q72 0 82 86h120z" />
    <glyph glyph-name="uni043A" unicode="&#x43a;" horiz-adv-x="669" 
d="M305 335v227h-275v-562h275v228h26q13 0 19 -6t11.5 -29.5t7 -68t1.5 -124.5h280q0 147 -19 213.5t-77 78.5q57 12 72 66.5t15 203.5h-278q0 -79 -1.5 -124t-6.5 -68t-11 -29t-17 -6h-22z" />
    <glyph glyph-name="uni043B" unicode="&#x43b;" horiz-adv-x="788" 
d="M10 174q22 -9 47 -9q37 0 42 57l25 340h634v-562h-299v428h-59l-21 -274q-4 -62 -60.5 -111t-163.5 -49q-103 0 -145 20v160z" />
    <glyph glyph-name="uni043C" unicode="&#x43c;" horiz-adv-x="884" 
d="M854 0h-249v249l-86 -249h-198l-93 249v-249h-198v562h279l121 -307l123 307h301v-562z" />
    <glyph glyph-name="uni043D" unicode="&#x43d;" horiz-adv-x="744" 
d="M714 0h-298v219h-88v-219h-298v562h298v-204h88v204h298v-562z" />
    <glyph glyph-name="uni043E" unicode="&#x43e;" horiz-adv-x="722" 
d="M711 263q0 -53 -21 -101t-61.5 -87.5t-109.5 -62.5t-157 -23q-166 0 -258.5 71t-92.5 203v38q0 110 95.5 192t258.5 82q150 0 248 -71t98 -203v-38zM404 227v101q0 60 -10 80t-35 20t-34.5 -20t-9.5 -80v-101q0 -65 10.5 -85t35.5 -20q23 0 33 20.5t10 84.5z" />
    <glyph glyph-name="uni043F" unicode="&#x43f;" horiz-adv-x="742" 
d="M712 0h-298v428h-86v-428h-298v562h682v-562z" />
    <glyph glyph-name="uni0440" unicode="&#x440;" horiz-adv-x="718" 
d="M702 252q0 -121 -69.5 -186.5t-195.5 -65.5q-105 0 -131 9v-176h-281v729h278l1 -47q14 22 56 40t106 18q66 0 113.5 -20.5t73.5 -57.5t37.5 -80.5t11.5 -96.5v-66zM398 199v166q0 50 -37 50q-33 0 -42 -30v-258q15 -5 38 -5q22 0 31.5 16.5t9.5 60.5z" />
    <glyph glyph-name="uni0441" unicode="&#x441;" horiz-adv-x="527" 
d="M518 25q-81 -37 -193 -37q-141 0 -227.5 70t-86.5 198v43q0 122 86 199.5t230 77.5q106 0 191 -35v-150q-50 36 -108 36q-43 0 -67 -32.5t-24 -95.5v-51q0 -62 32 -87.5t80 -25.5q37 0 87 26v-136z" />
    <glyph glyph-name="uni0442" unicode="&#x442;" horiz-adv-x="595" 
d="M590 428h-141v-428h-298v428h-146v134h585v-134z" />
    <glyph glyph-name="uni0443" unicode="&#x443;" horiz-adv-x="774" 
d="M772 562l-286 -729h-320l70 178l-230 551h303l99 -302l106 302h258z" />
    <glyph glyph-name="uni0444" unicode="&#x444;" horiz-adv-x="1002" 
d="M648 -167h-295v156q-163 1 -252.5 72t-89.5 202v38q0 110 91.5 191t250.5 83v162h295v-162q150 0 246.5 -71t96.5 -203v-38q0 -114 -86.5 -193.5t-256.5 -80.5v-156zM305 227q0 -64 12 -84.5t36 -20.5v306q-26 0 -37 -20.5t-11 -79.5v-101zM694 328q0 95 -46 100v-306
q46 2 46 105v101z" />
    <glyph glyph-name="uni0445" unicode="&#x445;" horiz-adv-x="794" 
d="M791 0h-353l-61 91l-68 -91h-293l232 261l-244 301h352l71 -104l74 104h292l-240 -267z" />
    <glyph glyph-name="uni0446" unicode="&#x446;" horiz-adv-x="792" 
d="M572 0v-184h208v328h-84v418h-290v-418h-86v418h-290v-562h542z" />
    <glyph glyph-name="uni0447" unicode="&#x447;" horiz-adv-x="644" 
d="M10 358v204h282v-211q0 -52 27 -52h15v263h280v-562h-292v173h-111q-104 0 -152.5 41.5t-48.5 143.5z" />
    <glyph glyph-name="uni0448" unicode="&#x448;" horiz-adv-x="1066" 
d="M672 144v418h-278v-418h-86v418h-278v-562h1006v562h-278v-418h-86z" />
    <glyph glyph-name="uni0449" unicode="&#x449;" horiz-adv-x="1132" 
d="M1036 144v418h-278v-418h-86v418h-278v-418h-86v418h-278v-562h882v-184h208v328h-84z" />
    <glyph glyph-name="uni044A" unicode="&#x44a;" horiz-adv-x="757" 
d="M151 0h399q106 0 150.5 53t44.5 151q0 102 -48.5 143.5t-152.5 41.5h-106v173h-433v-134h146v-428zM468 216v-27q0 -29 -8 -42t-17 -13h-17v134h15q27 0 27 -52z" />
    <glyph glyph-name="uni044B" unicode="&#x44b;" horiz-adv-x="985" 
d="M342 216v-27q0 -29 -8 -42t-17 -13h-17v134h15q27 0 27 -52zM955 0h-291v562h291v-562zM413 389h-101v173h-282v-562h389q106 0 150.5 53t44.5 151q0 102 -48.5 143.5t-152.5 41.5z" />
    <glyph glyph-name="uni044C" unicode="&#x44c;" horiz-adv-x="646" 
d="M634 204q0 102 -48.5 143.5t-152.5 41.5h-111v173h-292v-562h409q106 0 150.5 53t44.5 151zM352 216v-27q0 -29 -8 -42t-17 -13h-17v134h15q27 0 27 -52z" />
    <glyph glyph-name="uni044D" unicode="&#x44d;" horiz-adv-x="527" 
d="M9 25q81 -37 193 -37q141 0 227.5 70t86.5 198v43q0 122 -86 199.5t-230 77.5q-106 0 -191 -35v-150q50 36 108 36q75 0 89 -90h-128v-97h130q-4 -105 -112 -105q-37 0 -87 26v-136z" />
    <glyph glyph-name="uni044E" unicode="&#x44e;" horiz-adv-x="1062" 
d="M326 0h-291v562h291v-225h48q16 101 105 169.5t236 68.5q149 0 242.5 -70.5t93.5 -203.5v-38q0 -54 -19 -101.5t-58 -87t-106.5 -62.5t-155.5 -23q-157 0 -244.5 64.5t-95.5 186.5h-46v-240zM754 227v101q0 60 -10 80t-35 20t-34.5 -20t-9.5 -80v-101q0 -65 10.5 -85
t35.5 -20q23 0 33 20.5t10 84.5z" />
    <glyph glyph-name="uni044F" unicode="&#x44f;" horiz-adv-x="655" 
d="M16 0h280q0 102 3.5 152.5t9 63t16.5 12.5h25v-228h275v563h-425q-75 0 -116 -35.5t-41 -89.5v-41q0 -45 15.5 -71t53.5 -34q-58 -12 -77 -78.5t-19 -213.5zM316 376v39q0 42 16 42h18v-122h-18q-16 0 -16 41z" />
    <glyph glyph-name="uni0451" unicode="&#x451;" horiz-adv-x="652" 
d="M641 240h-334q0 -51 26 -76t86 -25q102 0 195 59v-154q-87 -56 -263 -56q-168 0 -254 70t-86 204v40q0 111 88 193.5t232 82.5q149 0 229.5 -77.5t80.5 -195.5v-65zM384 337q0 62 -7.5 83t-31.5 21q-23 0 -30 -20t-7 -84h76zM561 702q0 -48 -32 -80t-79 -32
q-45 0 -77 32.5t-32 79.5q0 44 32 77t77 33q47 0 79 -33t32 -77zM310 702q0 -48 -32 -80t-79 -32q-45 0 -77 32.5t-32 79.5q0 44 32 77t77 33q47 0 79 -33t32 -77z" />
    <glyph glyph-name="uni0452" unicode="&#x452;" horiz-adv-x="760" 
d="M732 384v-297q0 -137 -74.5 -205.5t-214.5 -68.5q-54 0 -107.5 6t-62.5 13v144q29 -12 76 -12q39 0 62.5 27t23.5 79v233q0 50 -39 50q-21 0 -33 -12.5t-14 -30.5v-310h-298v564h-51v139h51v34h279v-34h183v-139h-183v-140q18 44 78 69.5t124 25.5q97 0 148.5 -36
t51.5 -99z" />
    <glyph glyph-name="uni0453" unicode="&#x453;" horiz-adv-x="522" 
d="M328 0h-298v562h483v-154h-185v-408zM514 769l-160 -173h-226l122 173h264z" />
    <glyph glyph-name="uni0454" unicode="&#x454;" horiz-adv-x="527" 
d="M518 25q-81 -37 -193 -37q-141 0 -227.5 70t-86.5 198v43q0 122 86 199.5t230 77.5q106 0 191 -35v-150q-50 36 -108 36q-76 0 -89 -90h128v-97h-130q4 -105 112 -105q37 0 87 26v-136z" />
    <glyph glyph-name="uni0455" unicode="&#x455;" horiz-adv-x="584" 
d="M575 177q0 -185 -300 -185q-200 0 -260 28v145q25 -16 93.5 -27.5t117.5 -11.5t70 6.5t21 24.5q0 16 -22 25.5t-111 33.5q-96 24 -134 63.5t-38 110.5q0 78 74.5 131.5t212.5 53.5q174 0 248 -29v-147q-81 30 -177 30q-78 0 -78 -22q0 -12 10 -17t52 -16
q94 -24 143 -53.5t63.5 -61t14.5 -82.5z" />
    <glyph glyph-name="uni0456" unicode="&#x456;" horiz-adv-x="370" 
d="M336 602h-301v135h301v-135zM336 0h-301v562h301v-562z" />
    <glyph glyph-name="uni0457" unicode="&#x457;" horiz-adv-x="370" 
d="M336 0h-301v562h301v-562zM420 702q0 -48 -32 -80t-79 -32q-45 0 -77 32.5t-32 79.5q0 44 32 77t77 33q47 0 79 -33t32 -77zM169 702q0 -48 -32 -80t-79 -32q-45 0 -77 32.5t-32 79.5q0 44 32 77t77 33q47 0 79 -33t32 -77z" />
    <glyph glyph-name="uni0458" unicode="&#x458;" horiz-adv-x="396" 
d="M358 602h-302v135h302v-135zM358 95q0 -136 -77 -205t-217 -69q-54 0 -107.5 6t-62.5 13v144q29 -12 76 -12q39 0 62.5 27t23.5 79v484h302v-467z" />
    <glyph glyph-name="uni0459" unicode="&#x459;" horiz-adv-x="1045" 
d="M1033 204q0 -98 -44.5 -151t-150.5 -53h-389v428h-59l-21 -274q-5 -63 -56 -111.5t-158 -48.5q-103 0 -145 20v160q22 -9 47 -9q37 0 42 57l25 340h607v-173h101q104 0 152.5 -41.5t48.5 -143.5zM761 189v27q0 52 -27 52h-15v-134h17q9 0 17 13t8 42z" />
    <glyph glyph-name="uni045A" unicode="&#x45a;" horiz-adv-x="1002" 
d="M990 204q0 -98 -44.5 -151t-150.5 -53h-389v219h-88v-219h-288v562h288v-204h88v204h282v-173h101q104 0 152.5 -41.5t48.5 -143.5zM718 189v27q0 52 -27 52h-15v-134h17q9 0 17 13t8 42z" />
    <glyph glyph-name="uni045B" unicode="&#x45b;" horiz-adv-x="739" 
d="M513 564h-183v-140q18 44 78 69.5t124 25.5q97 0 148.5 -36t51.5 -99v-384h-297v303q0 50 -39 50q-21 0 -33 -12.5t-14 -30.5v-310h-298v564h-51v139h51v34h279v-34h183v-139z" />
    <glyph glyph-name="uni045C" unicode="&#x45c;" horiz-adv-x="655" 
d="M564 769l-160 -173h-226l122 173h264zM305 335v227h-275v-562h275v228h26q13 0 19 -6t11.5 -29.5t7 -68t1.5 -124.5h280q0 147 -19 213.5t-77 78.5q57 12 72 66.5t15 203.5h-278q0 -79 -1.5 -124t-6.5 -68t-11 -29t-17 -6h-22z" />
    <glyph glyph-name="uni045E" unicode="&#x45e;" horiz-adv-x="774" 
d="M772 562l-286 -729h-320l70 178l-230 551h303l99 -302l106 302h258zM609 800q0 -95 -59 -155.5t-143 -60.5q-88 0 -145 60t-57 156h118q8 -86 84 -86q72 0 82 86h120z" />
    <glyph glyph-name="uni045F" unicode="&#x45f;" horiz-adv-x="734" 
d="M263 0h-233v562h294v-418h86v418h294v-562h-233v-184h-208v184z" />
    <glyph glyph-name="uni0490" unicode="&#x490;" horiz-adv-x="652" 
d="M372 557v-557h-326v737h360v137h237v-317h-271z" />
    <glyph glyph-name="uni0491" unicode="&#x491;" horiz-adv-x="561" 
d="M328 408v-408h-298v562h315v161h208v-315h-225z" />
    <glyph glyph-name="endash" unicode="&#x2013;" 
d="M491 247h-482v203h482v-203z" />
    <glyph glyph-name="emdash" unicode="&#x2014;" horiz-adv-x="833" 
d="M821 247h-812v203h812v-203z" />
    <glyph glyph-name="quoteleft" unicode="&#x2018;" horiz-adv-x="312" 
d="M287 371h-255v211q0 90 64.5 127.5t190.5 37.5v-109q-34 0 -51.5 -9t-21 -19t-3.5 -28h76v-211z" />
    <glyph glyph-name="quoteright" unicode="&#x2019;" horiz-adv-x="312" 
d="M284 526q0 -90 -64.5 -127.5t-190.5 -37.5v109q34 0 51.5 9t21 19t3.5 28h-76v211h255v-211z" />
    <glyph glyph-name="quotesinglbase" unicode="&#x201a;" horiz-adv-x="312" 
d="M284 0q0 -90 -64.5 -127.5t-190.5 -37.5v109q34 0 51.5 9t21 19t3.5 28h-76v211h255v-211z" />
    <glyph glyph-name="quotedblleft" unicode="&#x201c;" horiz-adv-x="604" 
d="M581 371h-255v211q0 90 64.5 127.5t190.5 37.5v-109q-34 0 -51.5 -9t-21 -19t-3.5 -28h76v-211zM281 371h-255v211q0 90 64.5 127.5t190.5 37.5v-109q-34 0 -51.5 -9t-21 -19t-3.5 -28h76v-211z" />
    <glyph glyph-name="quotedblright" unicode="&#x201d;" horiz-adv-x="604" 
d="M578 526q0 -90 -64.5 -127.5t-190.5 -37.5v109q34 0 51.5 9t21 19t3.5 28h-76v211h255v-211zM278 526q0 -90 -64.5 -127.5t-190.5 -37.5v109q34 0 51.5 9t21 19t3.5 28h-76v211h255v-211z" />
    <glyph glyph-name="quotedblbase" unicode="&#x201e;" horiz-adv-x="604" 
d="M578 0q0 -90 -64.5 -127.5t-190.5 -37.5v109q34 0 51.5 9t21 19t3.5 28h-76v211h255v-211zM278 0q0 -90 -64.5 -127.5t-190.5 -37.5v109q34 0 51.5 9t21 19t3.5 28h-76v211h255v-211z" />
    <glyph glyph-name="dagger" unicode="&#x2020;" horiz-adv-x="646" 
d="M635 385h-175l-11 -552h-256l-10 552h-176v196h176v156h277v-156h175v-196z" />
    <glyph glyph-name="daggerdbl" unicode="&#x2021;" horiz-adv-x="645" 
d="M630 208h-193l-4 -375h-227l-3 375h-194v156h189l-2 62h-187v156h183l-6 155h267l-6 -155h183v-156h-187l-2 -62h189v-156z" />
    <glyph glyph-name="bullet" unicode="&#x2022;" horiz-adv-x="583" 
d="M62 375q0 94 68 161.5t162 67.5t161.5 -67.5t67.5 -161.5q0 -93 -67 -161t-162 -68q-96 0 -163 67.5t-67 161.5z" />
    <glyph glyph-name="ellipsis" unicode="&#x2026;" horiz-adv-x="954" 
d="M940 0h-287v234h287v-234zM622 0h-287v234h287v-234zM304 0h-287v234h287v-234z" />
    <glyph glyph-name="perthousand" unicode="&#x2030;" horiz-adv-x="1635" 
d="M549 527q0 -73 -74.5 -120.5t-191.5 -47.5q-115 0 -193.5 49.5t-78.5 118.5v52q0 66 75.5 117.5t196.5 51.5t193.5 -49.5t72.5 -119.5v-52zM897 737l-573 -737h-141l576 737h138zM1625 157q0 -72 -74.5 -120t-192.5 -48q-112 0 -191.5 50t-79.5 118v52q0 66 75.5 117.5
t195.5 51.5q123 0 195 -49.5t72 -119.5v-52zM1064 157q0 -72 -74.5 -120t-192.5 -48q-112 0 -191.5 50t-79.5 118v52q0 66 75.5 117.5t195.5 51.5q123 0 195 -49.5t72 -119.5v-52zM311 541v33q0 52 -7.5 66t-26.5 14q-18 0 -22.5 -13t-4.5 -65v-35q0 -63 6 -79t28 -16
q17 0 22 17.5t5 77.5zM1386 170v34q0 50 -7.5 65t-24.5 15q-18 0 -23 -13.5t-5 -64.5v-36q0 -60 6.5 -77t26.5 -17t23.5 14.5t3.5 79.5zM825 170v34q0 50 -7.5 65t-24.5 15q-18 0 -23 -13.5t-5 -64.5v-36q0 -60 6.5 -77t26.5 -17t23.5 14.5t3.5 79.5z" />
    <glyph glyph-name="guilsinglleft" unicode="&#x2039;" horiz-adv-x="408" 
d="M369 -10l-342 212v174l342 216v-194l-159 -107l159 -97v-204z" />
    <glyph glyph-name="guilsinglright" unicode="&#x203a;" horiz-adv-x="408" 
d="M39 -10v204l159 97l-159 107v194l342 -216v-174z" />
    <glyph glyph-name="fraction" unicode="&#x2044;" horiz-adv-x="570" 
d="M609 737l-462 -737h-186l462 737h186z" />
    <glyph glyph-name="fraction" unicode="&#x2215;" horiz-adv-x="570" 
d="M609 737l-462 -737h-186l462 737h186z" />
    <glyph glyph-name="Euro" unicode="&#x20ac;" horiz-adv-x="660" 
d="M650 20q-15 -10 -78.5 -21t-91.5 -11q-158 0 -258 57.5t-138 159.5h-63v117h41v80h-41v117h64q40 103 137 165.5t230 62.5q50 0 110.5 -7.5t87.5 -17.5v-167q-7 2 -25.5 10.5t-41.5 13t-59 4.5q-20 0 -34 -2.5t-31.5 -18t-28.5 -43.5h150v-117h-167v-80h167v-117h-152
q9 -24 21 -39t30.5 -20.5t29 -6.5t32.5 -1q37 0 109 28v-146z" />
    <glyph glyph-name="uni2116" unicode="&#x2116;" horiz-adv-x="1323" 
d="M740 0h-265l-168 272v-272h-261v737h235l199 -295v295h260v-737zM1301 525q0 -93 -68.5 -141t-183.5 -48q-113 0 -183 48t-70 141v29q0 87 68.5 138.5t183.5 51.5q112 0 182.5 -53t70.5 -137v-29zM1287 131h-471v153h471v-153zM1106 538v4q0 47 -14 65.5t-44 18.5
q-28 0 -42 -19t-14 -65v-4q0 -47 14 -65t42 -18t43 18t15 65z" />
    <glyph glyph-name="trademark" unicode="&#x2122;" horiz-adv-x="764" 
d="M292 620h-77v-188h-136v188h-77v109h290v-109zM753 432h-125v88l-94 -94h-23l-83 83v-77h-116v297h87l142 -142l141 142h71v-297z" />
    <glyph glyph-name="partialdiff" unicode="&#x2202;" horiz-adv-x="760" 
d="M732 359q0 -173 -93 -272t-280 -99q-172 0 -256 70t-84 200q0 120 78 192.5t205 72.5q65 0 111 -17t67 -40q-25 121 -171 121q-120 0 -183 -28v166q23 11 97 20.5t127 9.5q160 0 265 -96.5t116 -262.5q1 -12 1 -37zM409 269q0 60 -10 80t-35 20t-34.5 -20t-9.5 -80v-42
q0 -61 11 -83t35 -22q22 0 32.5 22.5t10.5 82.5v42z" />
    <glyph glyph-name="product" unicode="&#x220f;" horiz-adv-x="754" 
d="M742 577h-45v-577h-295v577h-50v-577h-295v577h-44v160h729v-160z" />
    <glyph glyph-name="summation" unicode="&#x2211;" horiz-adv-x="666" 
d="M392 571l187 -187l-205 -205h279v-179h-621v147l227 227l-217 217v146h591v-166h-241z" />
    <glyph glyph-name="minus" unicode="&#x2212;" horiz-adv-x="688" 
d="M640 220h-589v192h589v-192z" />
    <glyph glyph-name="radical" unicode="&#x221a;" horiz-adv-x="731" 
d="M759 737l-376 -761h-217l-166 226l192 112l92 -140l269 563h206z" />
    <glyph glyph-name="infinity" unicode="&#x221e;" horiz-adv-x="829" 
d="M793 333q0 -109 -57.5 -167t-146.5 -58q-106 0 -182 92q-68 -90 -172 -90q-92 0 -149 54t-57 169q0 112 58.5 172.5t145.5 60.5q102 0 176 -94q74 92 177 92q92 0 149.5 -61t57.5 -170zM494 340q14 -31 37 -48t47 -17q35 0 54 19t19 46q0 28 -21 47.5t-50 19.5
q-23 0 -47 -17.5t-39 -49.5zM323 335q-15 32 -39 49.5t-47 17.5q-29 0 -50 -19.5t-21 -47.5q0 -27 19 -46t54 -19q24 0 47 17t37 48z" />
    <glyph glyph-name="integral" unicode="&#x222b;" horiz-adv-x="608" 
d="M604 691l-77 -140q-32 28 -67 28q-53 0 -53 -77v-414q0 -118 -62.5 -189.5t-180.5 -71.5q-136 0 -206 62l77 140q23 -34 63 -34q53 0 53 77v414q0 127 60.5 194t182.5 67q126 0 210 -56z" />
    <glyph glyph-name="approxequal" unicode="&#x2248;" horiz-adv-x="770" 
d="M374 408l-40 24l-30 18.5l-19.5 11.5t-17.5 7.5t-16 1.5q-19 0 -32.5 -13.5t-13.5 -33.5q0 -15 5.5 -28.5t11.5 -22t20 -24.5h-156q-26 20 -44.5 61.5t-18.5 86.5q0 62 50.5 107t126.5 45q106 0 203 -69q56 -39 79 -51t44 -12q19 0 32.5 13.5t13.5 33.5q0 15 -5.5 28.5
t-11.5 22t-20 24.5h156q26 -20 44.5 -61.5t18.5 -86.5q0 -62 -50.5 -107t-126.5 -45q-103 0 -203 69zM374 78l-40 24l-30 18.5l-19.5 11.5t-17.5 7.5t-16 1.5q-19 0 -32.5 -13.5t-13.5 -33.5q0 -15 5.5 -28.5t11.5 -22t20 -24.5h-156q-26 20 -44.5 61.5t-18.5 86.5
q0 62 50.5 107t126.5 45q106 0 203 -69q56 -39 79 -51t44 -12q19 0 32.5 13.5t13.5 33.5q0 15 -5.5 28.5t-11.5 22t-20 24.5h156q26 -20 44.5 -61.5t18.5 -86.5q0 -62 -50.5 -107t-126.5 -45q-103 0 -203 69z" />
    <glyph glyph-name="notequal" unicode="&#x2260;" horiz-adv-x="686" 
d="M629 60h-389l-69 -110l-73 45l41 65h-78v183h192l59 94h-251v183h366l74 118l74 -45l-46 -73h100v-183h-215l-59 -94h274v-183z" />
    <glyph glyph-name="lessequal" unicode="&#x2264;" horiz-adv-x="606" 
d="M552 162l-507 119v192l507 120v-174l-234 -42l234 -42v-173zM552 0h-507v148h507v-148z" />
    <glyph glyph-name="greaterequal" unicode="&#x2265;" horiz-adv-x="606" 
d="M54 162v173l234 42l-234 42v174l507 -120v-192zM54 0v148h507v-148h-507z" />
    <glyph glyph-name="lozenge" unicode="&#x25ca;" horiz-adv-x="741" 
d="M720 332l-348 -348l-348 348l348 348zM498 332l-126 126l-126 -126l126 -126z" />
    <glyph glyph-name="apple" unicode="&#xf8ff;" horiz-adv-x="884" 
d="M634 758q0 -23 -9.5 -52t-28 -58t-52.5 -49.5t-77 -21.5q3 167 164 203q3 -17 3 -22zM262 758q0 6 3 22q161 -36 164 -203q-43 1 -77 21.5t-52.5 49.5t-28 58t-9.5 52zM452 529q9 0 69 21t89 21q87 0 143 -72.5t56 -186.5q0 -80 -35 -170.5t-88 -151t-101 -60.5
q-17 0 -66 17t-72 17q-21 0 -71 -17t-67 -17q-48 0 -101 60.5t-88 151t-35 170.5q0 114 56 186.5t143 72.5q29 0 95 -21t73 -21zM450 495q-9 0 -50.5 12t-57.5 12q-22 0 -42.5 -60.5t-20.5 -116.5q0 -30 12 -87.5t32 -120t52.5 -108.5t68.5 -46q47 0 93 68.5t71.5 151.5
t25.5 139q0 80 -20 130t-53 50q-24 0 -61 -12.5t-50 -11.5zM451 375q-5 50 -5 71q0 11 2 21t4 15l2 5q6 -16 6 -40q0 -13 -9 -72zM493 420q3 -27 -6 -58.5t-32 -42.5q-10 79 35 111q3 -8 3 -10zM407 420q0 2 3 10q45 -32 35 -111q-23 11 -32 42.5t-6 58.5zM366 313
q-3 5 -4 8q40 42 80 -12q-13 -18 -29.5 -19.5t-28 6t-18.5 17.5zM534 303q3 -5 4 -8q-40 -42 -80 12q13 18 29.5 19.5t28 -6t18.5 -17.5zM493 196q0 -2 -3 -10q-45 32 -35 111q23 -11 32 -42.5t6 -58.5zM407 196q-3 27 6 58.5t32 42.5q10 -79 -35 -111q-3 7 -3 10zM447 12
q-3 16 -3.5 34t1 36.5t1.5 25.5q0 2 -1 30t0 48.5t5 33.5q13 -40 13 -115q0 -50 -16 -93z" />
    <glyph glyph-name="NUL" horiz-adv-x="0" 
 />
    <glyph glyph-name="CR" horiz-adv-x="239" 
 />
    <glyph glyph-name="nbspace" horiz-adv-x="120" 
 />
    </font>
</defs>
</svg>
